<svg width="2156" height="2502" viewBox="0 0 2156 2502" fill="none" xmlns="http://www.w3.org/2000/svg">
<rect x="1049.1" y="2028" width="147" height="453" rx="45" transform="rotate(24.5514 1049.1 2028)" fill="#FFAB07"/>
<rect x="1046.53" y="2387.42" width="125" height="270" rx="45" transform="rotate(114.551 1046.53 2387.42)" fill="#FFAB07"/>
<path d="M1223.52 1264.9C1213.44 1312.47 1250.32 1368.58 1297.92 1369.9" stroke="#F0F0F0" stroke-width="20"/>
<rect x="878.357" y="516.079" width="558.821" height="883.6" transform="rotate(16.9825 878.357 516.079)" fill="#F0F0F0"/>
<ellipse cx="1145.93" cy="597.581" rx="279.384" ry="169.612" transform="rotate(16.9825 1145.93 597.581)" fill="#F0F0F0"/>
<path d="M1311.55 269.987C1312.92 259.226 1302.77 250.61 1292.38 253.714L1212.44 277.587C1207.04 279.2 1203 283.706 1201.98 289.251L1184.71 383.328C1182.56 395.029 1194.24 404.455 1205.22 399.887L1291.97 363.808C1296.93 361.745 1300.41 357.187 1301.09 351.858L1311.55 269.987Z" fill="#FFAB07"/>
<path d="M1043.62 684.934C1039.24 699.269 1024.07 707.34 1009.74 702.963C995.405 698.585 987.334 683.416 991.711 669.082C996.089 654.747 1011.26 646.676 1025.59 651.054C1039.93 655.431 1048 670.6 1043.62 684.934Z" fill="#151515"/>
<path d="M646.57 901.824C642.407 890.891 643.66 878.633 649.949 868.768L887.343 496.379C888.389 494.739 889.879 493.43 891.64 492.604C899.474 488.931 908.059 496.007 905.948 504.398L771.23 1040.02C762.404 1075.11 713.646 1077.98 700.769 1044.16L646.57 901.824Z" fill="#F0F0F0"/>
<path d="M1256.21 735.193C1271.35 842.692 1175.84 746.514 1076.69 760.479C977.545 774.444 912.312 893.264 897.171 785.765C882.029 678.266 950.129 579.8 1049.28 565.835C1148.42 551.87 1241.07 627.694 1256.21 735.193Z" stroke="#151515" stroke-width="50"/>
<path d="M1081.64 278.138C1082.48 273.145 1088.18 270.664 1092.4 273.452L1133.17 300.351C1135.37 301.8 1136.56 304.358 1136.27 306.973L1130.04 362.61C1129.43 368.128 1122.94 370.765 1118.65 367.243L1076.12 332.35C1074.19 330.76 1073.25 328.255 1073.66 325.782L1081.64 278.138Z" fill="#F0F0F0"/>
<path d="M620.918 1359.9H1992.92C2059.19 1359.9 2112.92 1413.62 2112.92 1479.9V1764.4C2112.92 1987.8 1931.82 2168.9 1708.42 2168.9H835.918C717.177 2168.9 620.918 2072.64 620.918 1953.9V1359.9Z" fill="#2B292E"/>
<rect x="1453" y="2376" width="125" height="270" rx="45" transform="rotate(90 1453 2376)" fill="#FFAB07"/>
<path d="M2070.92 1257.3C2086.92 1242.47 2112.91 1253.82 2112.91 1275.64L2112.91 1464.1C2112.91 1473.49 2107.65 1482.09 2099.29 1486.36L1990.77 1541.85C1973.81 1550.52 1953.77 1537.8 1954.4 1518.76L1959.3 1370.82C1959.52 1364.15 1962.4 1357.85 1967.29 1353.31L2070.92 1257.3Z" fill="#F0F0F0"/>
<path d="M1952.36 1296.12C1964.71 1280.56 1989.41 1284.93 1995.67 1303.79L2042.73 1445.64C2045.11 1452.82 2044.11 1460.7 2040.01 1467.06L1996.83 1534.01C1986.1 1550.63 1961.24 1548.81 1953.06 1530.8L1891.32 1394.91C1887.44 1386.37 1888.67 1376.38 1894.5 1369.03L1952.36 1296.12Z" fill="#F0F0F0"/>
<path d="M729.293 666.157C728.408 667.493 727.466 668.787 726.316 669.903C718.304 677.671 710.979 674.527 705.469 660.818L532.174 281.995C530.307 277.185 532.256 261.837 542.886 267.24L847.98 460.365C854.497 464.472 855.948 474.773 852.226 480.778C848.314 486.471 742.383 646.395 729.293 666.157Z" fill="#FFAB07"/>
<path d="M619.11 844.85C618.967 845.074 618.848 845.271 618.704 845.494C615.266 850.816 609.274 852.031 604.232 847.942C604.151 847.876 604.159 847.882 604.078 847.816C601.49 845.704 441.696 715.318 435.045 709.912C428.339 704.462 432.263 693.404 440.129 694.123C447.271 694.776 648.29 685.482 685.236 683.765C689.101 683.586 693.075 683.79 696.429 685.719C707.349 691.998 706.203 704.927 703.91 710.002C701.367 715.631 623.511 837.936 619.11 844.85Z" fill="#FFAB07"/>
<path d="M1221.92 1308.9L1249.63 1363.65H1194.21L1221.92 1308.9Z" fill="#F0F0F0"/>
<rect x="1306" y="2048" width="147" height="453" rx="45" fill="#FFAB07"/>
<rect x="289.999" y="16.201" width="57" height="320" rx="28.5" transform="rotate(-16.5127 289.999 16.201)" fill="#D9D9D9"/>
<rect x="306.802" y="548.882" width="57" height="320" rx="28.5" transform="rotate(73.4873 306.802 548.882)" fill="#D9D9D9"/>
<rect x="322.509" y="387.226" width="57" height="320" rx="28.5" transform="rotate(112.455 322.509 387.226)" fill="#D9D9D9"/>
<path d="M653.558 1753.74C653.251 1731.88 670.884 1714 692.742 1714C714.798 1714 732.509 1732.2 731.915 1754.24L723.672 2059.92C722.818 2091.58 682.124 2103.88 663.871 2078C660.046 2072.58 657.95 2066.13 657.857 2059.49L653.558 1753.74Z" fill="#413F42"/>
<path d="M621 1928.5V1941.2V1956.5L621.5 1971L623.5 1988.5L627 2005.5L630.5 2018L635 2030.5L640.5 2043.5L646.5 2056L655 2070.5L664 2083.5L668.5 2089L673.5 2091.5L680 2092.5H685.5L690.75 2092L696 2091.5L680 1973.5L643 1912.5L621 1928.5Z" fill="#413F42"/>
<path d="M1285 1401.5L1268 1422L1254.5 1383V1339.16L1256.5 1340L1258 1341L1261 1344.5L1266 1348.5L1271.5 1352L1278.5 1355.5L1285 1358L1292.5 1359.5L1299.5 1360H1318L1307 1373.5L1285 1401.5Z" fill="#413F42"/>
<rect x="621" y="1360" width="336" height="105" fill="#F0F0F0"/>
<path d="M620.87 1426.16C620.944 1411.39 631.76 1398.87 646.365 1396.65L1212.46 1310.67C1222.48 1309.15 1232.6 1312.79 1239.35 1320.36L1266.48 1350.77C1282.28 1368.47 1272.25 1396.64 1248.82 1400.37L655.397 1494.94C637.115 1497.85 620.584 1483.68 620.676 1465.16L620.87 1426.16Z" fill="#C6D8EE"/>
<path d="M661 1477C661 1443.86 687.863 1417 721 1417H997C1030.14 1417 1057 1443.86 1057 1477V1639C1057 1672.14 1030.14 1699 997 1699H721C687.863 1699 661 1672.14 661 1639V1477Z" fill="#C6D8EE"/>
<path d="M647.063 1570.34C638.107 1581.18 620.498 1574.85 620.498 1560.79L620.497 1412.98C620.497 1405.53 625.971 1399.21 633.348 1398.14L772.031 1378.07C785.608 1376.1 794.481 1391.89 785.744 1402.46L647.063 1570.34Z" fill="#469CDD"/>
<path d="M761.441 1638.96C762.104 1619.19 772.47 1601.02 789.151 1590.38L1186.59 1336.98C1244.52 1300.05 1308.99 1373.66 1264.75 1426.22L813.143 1962.62C791.739 1988.05 750.275 1972.12 751.388 1938.91L761.441 1638.96Z" fill="#413F42"/>
<path d="M648.323 1529.2C640.805 1515.44 620.344 1520.19 620.344 1535.7L620.344 1694.24C620.344 1702.73 627.311 1709.75 635.735 1709.75L722.38 1709.75C733.591 1709.75 740.447 1697.76 734.969 1687.74L648.323 1529.2Z" fill="#469CDD"/>
<path d="M648.323 1863.35C640.804 1877.1 620.343 1872.35 620.343 1856.84L620.344 1698.3C620.344 1689.81 627.311 1682.79 635.735 1682.79L722.38 1682.79C733.591 1682.79 740.447 1694.78 734.968 1704.8L648.323 1863.35Z" fill="#469CDD"/>
<path d="M620.3 1771C620.3 1748.91 638.208 1731 660.3 1731C682.391 1731 700.3 1748.91 700.3 1771V1929C700.3 1951.09 682.391 1969 660.3 1969C638.208 1969 620.3 1951.09 620.3 1929V1771Z" fill="#413F42"/>
<path d="M693.2 1716L624.193 1751.37" stroke="#413F42" stroke-width="15"/>
<rect x="620.3" y="1745" width="5" height="34" fill="#413F42"/>
<path d="M666.366 1754.87C667.023 1735.15 677.333 1717.01 693.941 1706.36L1087.9 1453.7C1145.72 1416.62 1210.39 1490.04 1166.31 1542.72L718.203 2078.1C696.842 2103.62 655.275 2087.73 656.383 2054.47L666.366 1754.87Z" fill="#413F42"/>
</svg>
